<svg xmlns="http://www.w3.org/2000/svg" width="40" height="40" viewBox="0 0 40 40">
    <g fill="#292929" fill-rule="nonzero">
        <path d="M19.977 0C8.962 0 0 8.962 0 19.977s8.962 19.977 19.977 19.977 19.977-8.962 19.977-19.977S30.992 0 19.977 0zm0 37.325c-9.566 0-17.348-7.782-17.348-17.348 0-9.566 7.782-17.348 17.348-17.348 9.566 0 17.348 7.782 17.348 17.348 0 9.566-7.782 17.348-17.348 17.348z"/>
        <path d="M21.291 18.797v-7.463a3.781 3.781 0 0 1 1.845 1.468 1.315 1.315 0 0 0 2.195-1.446 6.399 6.399 0 0 0-4.04-2.75V6.518a1.315 1.315 0 1 0-2.629 0v2.084c-2.91.606-5.102 3.19-5.102 6.277s2.193 5.671 5.102 6.278v7.463a3.781 3.781 0 0 1-1.844-1.468 1.314 1.314 0 1 0-2.195 1.446 6.399 6.399 0 0 0 4.04 2.75v2.088a1.315 1.315 0 1 0 2.628 0v-2.084c2.91-.606 5.102-3.19 5.102-6.277s-2.192-5.671-5.102-6.278zM16.19 14.88a3.786 3.786 0 0 1 2.473-3.544v7.088a3.786 3.786 0 0 1-2.473-3.544zm5.102 13.74V21.53a3.786 3.786 0 0 1 2.473 3.545 3.786 3.786 0 0 1-2.473 3.544z"/>
    </g>
</svg>
