<?xml version="1.0" encoding="UTF-8"?>
<svg width="363px" height="355px" viewBox="0 0 363 355" version="1.1" xmlns="http://www.w3.org/2000/svg" xmlns:xlink="http://www.w3.org/1999/xlink">
    <!-- Generator: Sketch 49 (51002) - http://www.bohemiancoding.com/sketch -->
    <title>logo</title>
    <desc>Created with Sketch.</desc>
    <defs></defs>
    <g id="Page-1" stroke="none" stroke-width="1" fill="none" fill-rule="evenodd">
        <g id="logo" transform="translate(-9.000000, -17.000000)">
            <rect id="Rectangle-11" x="0" y="0" width="385" height="384"></rect>
            <g id="Group-8" transform="translate(7.700000, 11.002865)">
                <path d="M-49.4200276,238.710113 L-49.4200276,238.62684 C-49.4311597,238.471395 -49.3921979,238.338158 -49.3031409,238.227126 C-49.1918197,238.093888 -49.0025764,238.02727 -48.7354055,238.02727 L-47.0488974,238.02727 C-46.8930477,238.02727 -46.7538983,238.068906 -46.631445,238.15218 C-46.5089916,238.235454 -46.4366339,238.365915 -46.4143697,238.543566 L-45.0117293,255.764555 C-44.9894651,255.875587 -44.9198903,255.933878 -44.8030031,255.939429 C-44.6861158,255.944981 -44.6165411,255.88669 -44.5942768,255.764555 L-42.5070144,245.372005 C-42.4402217,245.027805 -42.2231485,244.855708 -41.8557885,244.855708 L-39.8687147,244.855708 C-39.5013546,244.855708 -39.2842815,245.027805 -39.2174888,245.372005 L-37.3806978,255.764555 C-37.3584336,255.875587 -37.2888589,255.933878 -37.1719716,255.939429 C-37.0550843,255.944981 -36.9855096,255.88669 -36.9632454,255.764555 L-35.4270202,238.543566 C-35.404756,238.365915 -35.3323983,238.235454 -35.2099449,238.15218 C-35.0874916,238.068906 -34.9427762,238.02727 -34.7757943,238.02727 L-33.1059844,238.02727 C-32.8276813,238.02727 -32.6384381,238.093888 -32.538249,238.227126 C-32.4603241,238.338158 -32.4213623,238.465843 -32.4213623,238.610185 L-32.4213623,238.710113 L-34.8759829,261.393853 C-34.8982472,261.571504 -34.9733879,261.701965 -35.1014073,261.785239 C-35.2294267,261.868513 -35.3713591,261.910149 -35.5272088,261.910149 L-38.6497534,261.910149 C-38.8056031,261.910149 -38.9447526,261.871289 -39.0672059,261.793566 C-39.1896592,261.715844 -39.2675829,261.582607 -39.3009793,261.393853 L-40.7370158,251.101231 C-40.7592801,251.012405 -40.792676,250.967993 -40.8372044,250.967993 C-40.8817329,250.967993 -40.9151288,251.012405 -40.937393,251.101231 L-42.8576745,261.393853 C-42.9244672,261.738052 -43.1359744,261.910149 -43.4922023,261.910149 L-46.6147469,261.910149 C-46.7705966,261.910149 -46.912529,261.871289 -47.0405484,261.793566 C-47.1685678,261.715844 -47.2437085,261.582607 -47.2659727,261.393853 L-49.4200276,238.710113 Z M-8.84735746,261.227305 L-8.84735746,238.710113 C-8.84735746,238.532462 -8.77778274,238.374244 -8.63863122,238.235454 C-8.49947969,238.096664 -8.34084933,238.02727 -8.16273538,238.02727 L3.22536847,238.02727 C3.40348242,238.02727 3.56211278,238.096664 3.7012643,238.235454 C3.84041582,238.374244 3.90999054,238.532462 3.90999054,238.710113 L3.90999054,240.592098 C3.90999054,240.769749 3.84041582,240.927967 3.7012643,241.066757 C3.56211278,241.205548 3.40348242,241.274942 3.22536847,241.274942 L-5.25726607,241.274942 C-5.47990851,241.274942 -5.59122806,241.385972 -5.59122806,241.608036 L-5.59122806,247.753631 C-5.59122806,247.975695 -5.47990851,248.092277 -5.25726607,248.10338 L2.85801028,248.10338 C3.03612423,248.10338 3.19475459,248.169998 3.33390611,248.303237 C3.47305764,248.436475 3.54263236,248.597469 3.54263236,248.786224 L3.54263236,250.651553 C3.54263236,250.829205 3.47305764,250.987423 3.33390611,251.126213 C3.19475459,251.265003 3.03612423,251.334397 2.85801028,251.334397 L-5.25726607,251.334397 C-5.47990851,251.334397 -5.59122806,251.450979 -5.59122806,251.684146 L-5.59122806,258.329383 C-5.59122806,258.551447 -5.47990851,258.662477 -5.25726607,258.662477 L3.29216086,258.662477 C3.47027481,258.662477 3.62890517,258.731871 3.7680567,258.870661 C3.90720822,259.009452 3.97678294,259.16767 3.97678294,259.345321 L3.97678294,261.227305 C3.97678294,261.404957 3.90999121,261.563175 3.77640575,261.701965 C3.64282028,261.840755 3.48140694,261.910149 3.29216086,261.910149 L-8.16273538,261.910149 C-8.34084933,261.910149 -8.49947969,261.840755 -8.63863122,261.701965 C-8.77778274,261.563175 -8.84735746,261.404957 -8.84735746,261.227305 Z M27.9348441,261.227305 L27.9348441,238.710113 C27.9348441,238.532462 28.0016358,238.374244 28.1352213,238.235454 C28.2688067,238.096664 28.4302201,238.02727 28.6194662,238.02727 L34.9480459,238.02727 C35.8608799,238.02727 36.7263894,238.188264 37.5446003,238.510257 C38.3628113,238.83225 39.0724734,239.27082 39.673608,239.82598 C40.2747426,240.381141 40.7534167,241.050099 41.1096446,241.832875 C41.4658725,242.615651 41.6439837,243.462258 41.6439837,244.372721 C41.6439837,245.172152 41.4825704,245.999328 41.1597389,246.854275 C40.8369073,247.709222 40.3471013,248.419817 39.6903061,248.986081 C39.3674746,249.263661 39.3674746,249.513479 39.6903061,249.735543 C40.3916298,250.301807 40.9732744,251.067917 41.4352575,252.033896 C41.8972406,252.999875 42.1282286,253.971391 42.1282286,254.948473 C42.1282286,255.903349 41.9445514,256.808247 41.5771913,257.663194 C41.2098313,258.518141 40.7005444,259.256493 40.0493152,259.878272 C39.3980861,260.500052 38.6355472,260.994137 37.7616756,261.360543 C36.887804,261.726949 35.9499368,261.910149 34.9480459,261.910149 L28.6194662,261.910149 C28.4413522,261.910149 28.2827218,261.840755 28.1435703,261.701965 C28.0044188,261.563175 27.9348441,261.404957 27.9348441,261.227305 Z M31.1742754,258.329383 C31.1742754,258.551447 31.2911609,258.662477 31.5249355,258.662477 L34.9480459,258.662477 C35.4712556,258.662477 35.9721936,258.568102 36.4508748,258.379347 C36.9295561,258.190592 37.3442214,257.924119 37.6948832,257.57992 C38.0455451,257.235721 38.3294099,256.841563 38.5464863,256.397434 C38.7635627,255.953306 38.8720992,255.470324 38.8720992,254.948473 C38.8720992,254.360003 38.7635627,253.821506 38.5464863,253.332964 C38.3294099,252.844423 38.0455451,252.416956 37.6948832,252.05055 C37.3442214,251.684145 36.9295561,251.406569 36.4508748,251.217814 C35.9721936,251.02906 35.4712556,250.934684 34.9480459,250.934684 L31.5249355,250.934684 C31.302293,250.934684 31.1854075,251.045714 31.1742754,251.267778 L31.1742754,258.329383 Z M31.1742754,247.520464 C31.1742754,247.742529 31.2911609,247.853559 31.5249355,247.853559 L34.9480459,247.853559 C36.0389938,247.853559 36.8850224,247.517692 37.486157,246.845948 C38.0872916,246.174204 38.3878543,245.349803 38.3878543,244.372721 C38.3878543,243.873077 38.2932327,243.431731 38.1039867,243.04867 C37.9147406,242.665609 37.6587056,242.343621 37.3358741,242.082696 C37.0130425,241.82177 36.6401221,241.621916 36.2171014,241.483126 C35.7940808,241.344336 35.3710665,241.274942 34.9480459,241.274942 L31.5249355,241.274942 C31.302293,241.274942 31.1854075,241.385972 31.1742754,241.608036 L31.1742754,247.520464 Z M66.1697803,261.227305 L66.1697803,238.710113 C66.1697803,238.532462 66.239355,238.374244 66.3785065,238.235454 C66.517658,238.096664 66.6762884,238.02727 66.8544023,238.02727 L73.016001,238.02727 C73.9956278,238.02727 74.925146,238.216021 75.8045837,238.59353 C76.6840213,238.971039 77.4465602,239.484555 78.0922233,240.134093 C78.7378864,240.78363 79.2499563,241.544189 79.6284484,242.41579 C80.0069406,243.287392 80.1961838,244.21172 80.1961838,245.188803 C80.1961838,246.487878 79.8650082,247.678679 79.2026469,248.761242 C78.5402856,249.843804 77.6859081,250.690411 76.6394886,251.301088 C76.3166571,251.478739 76.099584,251.659163 75.9882628,251.842366 C75.8769415,252.025569 75.8992054,252.278163 76.0550552,252.600156 L80.0959952,260.894211 C80.2073164,261.149585 80.2128824,261.382749 80.1126933,261.593709 C80.0125042,261.80467 79.7898651,261.910149 79.4447693,261.910149 L77.5244879,261.910149 C77.2461849,261.910149 77.0402437,261.846307 76.9066582,261.71862 C76.7730728,261.590933 76.6506213,261.427163 76.5393,261.227305 L72.49836,252.766704 C72.4538315,252.655672 72.3814738,252.561296 72.2812847,252.483573 C72.1810956,252.405851 72.0363802,252.36699 71.8471341,252.36699 L69.7598716,252.36699 C69.5372292,252.36699 69.4259097,252.478021 69.4259097,252.700085 L69.4259097,261.227305 C69.4259097,261.404957 69.3563349,261.563175 69.2171834,261.701965 C69.0780319,261.840755 68.9194015,261.910149 68.7412876,261.910149 L66.8544023,261.910149 C66.6762884,261.910149 66.517658,261.840755 66.3785065,261.701965 C66.239355,261.563175 66.1697803,261.404957 66.1697803,261.227305 Z M69.4259097,248.786224 C69.4259097,249.008288 69.5372292,249.119318 69.7598716,249.119318 L73.016001,249.119318 C73.5392108,249.119318 74.0401488,249.016615 74.51883,248.811206 C74.9975112,248.605797 75.4149596,248.328221 75.7711875,247.978469 C76.1274154,247.628718 76.4112802,247.21513 76.6227905,246.737692 C76.8343009,246.260254 76.9400544,245.743963 76.9400544,245.188803 C76.9400544,244.644745 76.8398668,244.139557 76.6394886,243.673222 C76.4391104,243.206888 76.1552456,242.793299 75.7878856,242.432445 C75.4205255,242.071591 75.0030772,241.788463 74.5355281,241.583054 C74.067979,241.377645 73.561475,241.274942 73.016001,241.274942 L69.7598716,241.274942 C69.5372292,241.274942 69.4259097,241.385972 69.4259097,241.608036 L69.4259097,248.786224 Z M102.100379,261.227305 L108.462355,238.543566 C108.529147,238.199367 108.74622,238.02727 109.11358,238.02727 L111.501409,238.02727 C111.868769,238.02727 112.085842,238.199367 112.152635,238.543566 L118.514611,261.227305 C118.525743,261.271718 118.531309,261.31613 118.531309,261.360543 C118.531309,261.460472 118.486781,261.565951 118.397724,261.676983 C118.286403,261.832428 118.097159,261.910149 117.829988,261.910149 L115.943103,261.910149 C115.620272,261.910149 115.403199,261.738052 115.291877,261.393853 L113.789048,256.180923 C113.722256,255.85893 113.505182,255.697936 113.137822,255.697936 L107.460469,255.697936 C107.137637,255.697936 106.920564,255.85893 106.809243,256.180923 L105.306414,261.393853 C105.195093,261.738052 104.978019,261.910149 104.655188,261.910149 L102.785001,261.910149 C102.506698,261.910149 102.311889,261.832428 102.200567,261.676983 C102.122642,261.565951 102.083681,261.460472 102.083681,261.360543 C102.083681,261.31613 102.089247,261.271718 102.100379,261.227305 Z M107.911317,252.150479 C107.900185,252.205995 107.894619,252.255959 107.894619,252.300371 C107.894619,252.455816 107.989241,252.533538 108.178487,252.533538 L112.419804,252.533538 C112.620182,252.533538 112.72037,252.455816 112.72037,252.300371 C112.72037,252.255959 112.714804,252.205995 112.703672,252.150479 L110.466127,242.640629 C110.421598,242.507391 110.37707,242.440772 110.332542,242.440772 L110.265749,242.440772 C110.198957,242.440772 110.154429,242.507391 110.132165,242.640629 L107.911317,252.150479 Z M139.717485,238.860006 C139.706353,238.80449 139.700787,238.748975 139.700787,238.693459 C139.700787,238.571323 139.734183,238.443638 139.800976,238.3104 C139.912297,238.121645 140.10154,238.02727 140.368711,238.02727 L142.422577,238.02727 C142.767673,238.02727 142.984746,238.199367 143.073803,238.543566 L147.832762,256.730529 C147.855026,256.863767 147.921818,256.930386 148.033139,256.930386 L148.099931,256.930386 C148.188988,256.930386 148.25578,256.863767 148.300308,256.730529 L153.059267,238.543566 C153.148324,238.199367 153.365397,238.02727 153.710493,238.02727 L155.797755,238.02727 C156.076058,238.02727 156.265301,238.116094 156.36549,238.293745 C156.432283,238.415881 156.465679,238.538014 156.465679,238.660149 C156.465679,238.715665 156.460113,238.771181 156.448981,238.826697 L150.053609,261.393853 C149.942288,261.738052 149.725214,261.910149 149.402383,261.910149 L146.730687,261.910149 C146.385591,261.910149 146.168518,261.738052 146.079461,261.393853 L139.717485,238.860006 Z M180.156571,261.227305 L180.156571,238.710113 C180.156571,238.532462 180.226145,238.374244 180.365297,238.235454 C180.504448,238.096664 180.663079,238.02727 180.841193,238.02727 L192.229296,238.02727 C192.40741,238.02727 192.566041,238.096664 192.705192,238.235454 C192.844344,238.374244 192.913919,238.532462 192.913919,238.710113 L192.913919,240.592098 C192.913919,240.769749 192.844344,240.927967 192.705192,241.066757 C192.566041,241.205548 192.40741,241.274942 192.229296,241.274942 L183.746662,241.274942 C183.524019,241.274942 183.4127,241.385972 183.4127,241.608036 L183.4127,247.753631 C183.4127,247.975695 183.524019,248.092277 183.746662,248.10338 L191.861938,248.10338 C192.040052,248.10338 192.198683,248.169998 192.337834,248.303237 C192.476986,248.436475 192.54656,248.597469 192.54656,248.786224 L192.54656,250.651553 C192.54656,250.829205 192.476986,250.987423 192.337834,251.126213 C192.198683,251.265003 192.040052,251.334397 191.861938,251.334397 L183.746662,251.334397 C183.524019,251.334397 183.4127,251.450979 183.4127,251.684146 L183.4127,258.329383 C183.4127,258.551447 183.524019,258.662477 183.746662,258.662477 L192.296089,258.662477 C192.474203,258.662477 192.632833,258.731871 192.771985,258.870661 C192.911136,259.009452 192.980711,259.16767 192.980711,259.345321 L192.980711,261.227305 C192.980711,261.404957 192.913919,261.563175 192.780334,261.701965 C192.646748,261.840755 192.485335,261.910149 192.296089,261.910149 L180.841193,261.910149 C180.663079,261.910149 180.504448,261.840755 180.365297,261.701965 C180.226145,261.563175 180.156571,261.404957 180.156571,261.227305 Z" id="webrave" fill="#000000" transform="translate(71.779414, 249.968709) rotate(-300.000000) translate(-71.779414, -249.968709) "></path>
                <g id="Group-6" transform="translate(209.069341, 166.693410) rotate(-30.000000) translate(-209.069341, -166.693410) translate(97.099427, 39.610315)" fill="#44D18E">
                    <path d="M161.060172,93.5243553 L188.638968,93.5243553 L188.638968,6.6017192 L223.939828,6.6017192 L223.939828,122.131805 L201.876791,122.131805 L201.876791,128.733524 L147.82235,128.733524 L147.82235,122.131805 L125.759312,122.131805 L125.759312,35.2091691 L98.1805158,35.2091691 L98.1805158,122.131805 L76.1174785,122.131805 L76.1174785,128.733524 L22.0630372,128.733524 L22.0630372,122.131805 L0,122.131805 L0,6.6017192 L35.3008596,6.6017192 L35.3008596,93.5243553 L62.8796562,93.5243553 L62.8796562,6.6017192 L84.9426934,6.6017192 L84.9426934,0 L138.997135,0 L138.997135,6.6017192 L161.060172,6.6017192 L161.060172,93.5243553 Z" id="Combined-Shape"></path>
                    <path d="M161.014327,191.495702 L161.014327,218.95702 L188.684814,218.95702 L188.684814,191.495702 L161.014327,191.495702 Z M125.805158,191.495702 L98.1346705,191.495702 L98.1346705,232.230659 L91.5616046,232.230659 L91.5616046,254.166189 L0,254.166189 L0,218.95702 L62.9255014,218.95702 L62.9255014,191.495702 L0.290830946,191.495702 L0.290830946,156.194842 L223.648997,156.194842 L223.648997,178.176218 L223.893983,178.176218 L223.893983,232.230659 L217.320917,232.230659 L217.320917,254.166189 L132.378223,254.166189 L132.378223,232.230659 L125.805158,232.230659 L125.805158,191.495702 Z" id="Combined-Shape"></path>
                </g>
            </g>
        </g>
    </g>
</svg>