<?xml version="1.0" encoding="UTF-8"?>
<svg width="40px" height="40px" viewBox="0 0 40 40" version="1.1" xmlns="http://www.w3.org/2000/svg" xmlns:xlink="http://www.w3.org/1999/xlink">
    <!-- Generator: Sketch 49 (51002) - http://www.bohemiancoding.com/sketch -->
    <title>personal</title>
    <desc>Created with Sketch.</desc>
    <defs></defs>
    <g id="Page-1" stroke="none" stroke-width="1" fill="none" fill-rule="evenodd">
        <g id="7" transform="translate(-136.000000, -996.000000)" fill="#292929" fill-rule="nonzero">
            <g id="Group-6" transform="translate(136.000000, 996.000000)">
                <g id="personal">
                    <path d="M38.737793,9.22424312 C37.923584,8.41003422 36.8414306,7.96173094 35.6900024,7.96173094 C33.3135986,7.96173094 31.3803101,9.89532469 31.3803101,12.2717285 L31.3803101,16.4038086 C30.5181884,16.5560913 29.7241211,16.9665527 29.0924072,17.5982666 L24.2108155,22.4798584 C23.9910889,22.699585 23.8674927,22.9977417 23.8674927,23.3084106 L23.8674927,31.3800048 L23.7841797,31.3800048 C23.137207,31.3800048 22.6123047,31.9049072 22.6123047,32.5518798 L22.6123047,35.6900024 C22.6123047,38.0664062 24.5455933,39.9996948 26.9223023,39.9996948 L31.1447144,39.9996948 C33.5214234,39.9996948 35.4547119,38.0664062 35.4547119,35.6900024 L35.4547119,32.5518798 C35.4547119,32.0025634 35.0756836,31.5426636 34.5654297,31.4157105 L38.7374878,27.2436523 C39.5526123,26.428833 40.0009155,25.345459 40,24.1934204 L40,12.2717285 C40,11.1206055 39.5516968,10.038147 38.737793,9.22424312 Z M33.1109619,35.6900024 C33.1109619,36.774292 32.2290039,37.65625 31.1447144,37.65625 L26.9223023,37.65625 C25.8380127,37.65625 24.9560547,36.774292 24.9560547,35.6900024 L24.9560547,33.7240601 L33.1109619,33.7240601 L33.1109619,35.6900024 Z M37.65625,24.1946411 C37.6565552,24.720459 37.4520874,25.2145386 37.0803833,25.5865478 L32.1990967,30.4681397 C32.1716309,30.4953003 32.1456909,30.524292 32.1209717,30.5541992 C32.1102905,30.567627 32.1008301,30.5813598 32.0904541,30.5950928 C32.0776367,30.6121827 32.0645141,30.6286621 32.0529175,30.6463623 C32.0416259,30.6628418 32.0321655,30.6802368 32.0217895,30.6973266 C32.0126343,30.7128906 32.0025634,30.7281494 31.9940186,30.7443237 C31.9848633,30.7620239 31.9766235,30.7800293 31.9683838,30.7980347 C31.9604492,30.8148194 31.9522095,30.8312988 31.9448852,30.8483887 C31.937561,30.8657837 31.9317627,30.8837891 31.925354,30.9014892 C31.9189453,30.9197998 31.9119263,30.9378052 31.906128,30.9564209 C31.9009399,30.9744262 31.8969727,30.9927368 31.8920898,31.0107422 C31.8875122,31.0296631 31.8820191,31.048584 31.878357,31.0678101 C31.8740845,31.0888672 31.871643,31.1102295 31.8685913,31.1315918 C31.8661499,31.1480712 31.8630981,31.1642456 31.8612671,31.1810303 C31.857605,31.2197876 31.8554688,31.2585449 31.8554688,31.2973023 L31.8554688,31.3803101 L26.2112427,31.3803101 L26.2112427,23.7939453 L30.7498169,19.2556762 C31.1209106,18.8842773 31.6146851,18.6798095 32.1398926,18.6798095 C32.236023,18.6798095 32.3306274,18.6868286 32.4237061,18.7002563 C32.4273681,18.7005616 32.4307251,18.701477 32.434082,18.7017822 C32.8475952,18.7634277 33.2290649,18.9544678 33.5302734,19.2556762 C33.9016723,19.6270752 34.1061402,20.1208496 34.1061402,20.6460571 C34.1061402,21.1712647 33.9016723,21.6650391 33.5302734,22.036438 L30.4238891,25.1428223 C29.9661255,25.6005859 29.9661255,26.3424683 30.4238891,26.800232 C30.8813477,27.2576905 31.6235352,27.2576905 32.0809937,26.7999267 L35.187378,23.6935425 C36.0015869,22.8796387 36.4498902,21.7971802 36.4498902,20.6460571 C36.4498902,19.4946289 36.0015869,18.4124756 35.1876831,17.5985718 C34.7631836,17.1740723 34.265747,16.8502808 33.7240601,16.6363525 L33.7240601,12.2717285 C33.7240601,11.1877441 34.606018,10.3054809 35.6903077,10.3054809 C36.2155152,10.3054809 36.7092895,10.5099487 37.0806884,10.8813477 C37.4517822,11.2527466 37.6565552,11.746521 37.6565552,12.2717285 L37.65625,24.1946411 Z" id="Shape"></path>
                    <path d="M24.8483277,17.2659302 C24.8495484,17.2659302 24.8507691,17.2659302 24.8519898,17.2659302 C25.498352,17.2650147 26.0220337,16.7407227 26.0220337,16.0940552 C26.0220337,16.0040283 26.0119629,15.9164429 25.9927368,15.8322144 L25.1815796,11.1044312 L28.6630249,7.71087648 C28.9825439,7.39959719 29.0975952,6.93389891 28.9596558,6.50939938 C28.8217163,6.08520508 28.4552002,5.77606203 28.0136109,5.71197508 L23.2025147,5.01281734 L21.0510254,0.653381328 C20.8535766,0.253295938 20.446167,0 20,0 C19.5541382,0 19.1467285,0.253295938 18.9492798,0.653076172 L16.7974853,5.01281734 L11.9863891,5.71197508 C11.545105,5.77606203 11.1782837,6.08520508 11.0403442,6.50939938 C10.9024048,6.93389891 11.0174561,7.39959719 11.3369751,7.71087648 L14.8184204,11.1044312 L13.996582,15.8959961 C13.9212036,16.3357544 14.1018677,16.7800903 14.4625855,17.0422363 C14.666748,17.1905517 14.9084473,17.2659302 15.1516723,17.2659302 C15.3381348,17.2659302 15.5252075,17.2216797 15.6967163,17.1313477 L20,14.8690796 L24.3032837,17.1313477 C24.4747925,17.2216797 24.6618652,17.2659302 24.8483277,17.2659302 Z M20.5453491,12.5076294 C20.2041626,12.328186 19.7961426,12.328186 19.4546509,12.5076294 L16.7080688,13.9520264 L17.232666,10.8935547 C17.2976684,10.5133056 17.1716309,10.1254273 16.8954468,9.85626219 L14.6731567,7.68981938 L17.7441406,7.24365234 C18.1259155,7.18841555 18.4558105,6.94854734 18.6264038,6.6027832 L20,3.81988523 L21.373291,6.6027832 C21.5441895,6.94854734 21.8740845,7.18841555 22.2558594,7.24365234 L25.3268433,7.68981938 L23.1045532,9.85626219 C22.8283691,10.1254273 22.7023316,10.5133056 22.7676391,10.8935547 L23.2922363,13.9520264 L20.5453491,12.5076294 Z" id="Shape"></path>
                    <path d="M16.2158203,31.3803101 L16.1325073,31.3803101 L16.1325073,23.3087158 C16.1325073,22.9977417 16.0092163,22.6998902 15.7894898,22.4801636 L10.907898,17.5985718 C10.2612305,16.9519043 9.45831297,16.5551758 8.61968992,16.40625 L8.61968992,12.2717285 C8.61968992,9.89532469 6.68640141,7.96203609 4.30999758,7.96203609 C4.30999758,7.96203609 4.30969234,7.96203609 4.30969234,7.96203609 C3.15856937,7.96203609 2.07641602,8.41033938 1.26251219,9.22424313 C0.448303203,10.038147 -5.29451073e-16,11.1206055 -5.29451073e-16,12.2717285 L-5.29451073e-16,24.1925048 C-0.00091553125,25.3451538 0.447387656,26.428833 1.26220703,27.2436523 L5.43457031,31.4160156 C4.92431641,31.5426636 4.54528812,32.0025634 4.54528812,32.5521851 L4.54528812,35.6903077 C4.54528812,38.0667114 6.47888187,40 8.85528563,40 L13.0776977,40 C15.4544067,40 17.3876953,38.0667114 17.3876953,35.6903077 L17.3876953,32.5521851 C17.3876953,31.9049072 16.8630981,31.3803101 16.2158203,31.3803101 Z M2.34375,24.1937256 L2.34375,12.2717285 C2.34375,11.746521 2.54821781,11.2527466 2.91961672,10.8813477 C3.29101563,10.5099488 3.78448484,10.3054809 4.30969234,10.3054809 L4.30999758,10.3054809 C5.39398195,10.3054809 6.27593992,11.1877441 6.27593992,12.2717285 L6.27593992,16.6387939 C5.74279781,16.8484497 5.24291992,17.1679688 4.81262203,17.5982666 C3.99841312,18.4124756 3.550415,19.4946289 3.550415,20.645752 C3.550415,21.7971802 3.99871828,22.8796387 4.81292727,23.6935425 L7.91931156,26.7999267 C8.37677,27.2576905 9.11865234,27.2576905 9.57641602,26.7999267 C10.0341797,26.3424683 10.0341797,25.6002808 9.57641602,25.1428223 L6.47003172,22.0361328 C6.09863281,21.6647339 5.894165,21.1709595 5.894165,20.6460571 C5.894165,20.1208496 6.09863281,19.6270752 6.47003172,19.2556763 C7.23663328,18.4890747 8.48388672,18.4890747 9.25048828,19.2556763 L13.7887573,23.7939453 L13.7887573,31.3803101 L8.14453125,31.3803101 L8.14453125,31.2973023 C8.14453125,31.2585449 8.142395,31.2197876 8.13873289,31.1810303 C8.13690188,31.1642456 8.13385008,31.1480713 8.13140867,31.1315918 C8.12835695,31.1102295 8.12591555,31.0888672 8.12164305,31.0678101 C8.11798094,31.048584 8.11248781,31.0296631 8.10791016,31.0107422 C8.1033325,30.9927368 8.09936523,30.9744263 8.09387203,30.9564209 C8.08837891,30.9378052 8.08135984,30.9197998 8.07464602,30.9014892 C8.06823734,30.8837891 8.06243898,30.8657837 8.05511477,30.8483887 C8.0480957,30.8312988 8.03985594,30.8148194 8.03161625,30.7980347 C8.02337648,30.7800293 8.01544188,30.7620239 8.00598141,30.7443238 C7.99743656,30.7281494 7.9873657,30.7128906 7.97821047,30.6973266 C7.96783445,30.6802368 7.95837406,30.6628418 7.9470825,30.6463623 C7.93548586,30.6286621 7.92236328,30.6121827 7.90954594,30.5950928 C7.89947508,30.5813598 7.89001469,30.567627 7.87902828,30.5541992 C7.85430906,30.524292 7.82836914,30.4953003 7.80120852,30.4681397 L2.91961672,25.5862427 C2.54760742,25.2145386 2.34313969,24.720459 2.34375,24.1937256 Z M15.0439453,35.6900024 C15.0439453,36.774292 14.1619873,37.65625 13.0776977,37.65625 L8.85528563,37.65625 C7.77130125,37.65625 6.88934328,36.774292 6.88934328,35.6900024 L6.88934328,33.7240601 L15.0439453,33.7240601 L15.0439453,35.6900024 Z" id="Shape"></path>
                </g>
            </g>
        </g>
    </g>
</svg>