<?xml version="1.0" encoding="UTF-8"?>
<svg width="40px" height="40px" viewBox="0 0 40 40" version="1.1" xmlns="http://www.w3.org/2000/svg" xmlns:xlink="http://www.w3.org/1999/xlink">
    <!-- Generator: Sketch 49 (51002) - http://www.bohemiancoding.com/sketch -->
    <title>process</title>
    <desc>Created with Sketch.</desc>
    <defs></defs>
    <g id="Page-1" stroke="none" stroke-width="1" fill="none" fill-rule="evenodd">
        <g id="7" transform="translate(-136.000000, -846.000000)" fill="#292929" fill-rule="nonzero">
            <g id="Group-4" transform="translate(136.000000, 844.000000)">
                <g id="process" transform="translate(0.000000, 2.000000)">
                    <path d="M39.7699022,11.7712402 L31.4016761,0.474243125 C31.1804236,0.176086406 30.8313025,0 30.4599035,0 C30.0885045,0 29.7390782,0.176086406 29.5184361,0.474243125 L21.15021,11.7712402 C20.8868433,12.12677 20.8462549,12.600708 21.0455347,12.9959106 C21.2445094,13.3911133 21.6494776,13.640747 22.0919826,13.640747 L25.1040679,13.640747 L25.1040679,19.3048095 C24.5141631,19.0008545 23.8461332,18.828125 23.1378201,18.828125 L21.0458399,18.828125 C18.6694358,18.828125 16.736147,20.7614136 16.736147,23.1378173 L16.736147,25.5807495 C16.1462421,25.2767945 15.4779071,25.1040649 14.7698992,25.1040649 L12.677919,25.1040649 C10.3015149,25.1040649 8.36822607,27.0376587 8.36822607,29.4140625 L8.36822607,31.8566895 C7.77801608,31.5530395 7.10998615,31.3800048 6.40197826,31.3800048 L4.30969285,31.3800048 C1.93328882,31.3800048 0,33.3135986 0,35.6900024 L0,38.828125 C0,39.4754028 0.52459725,40 1.17187514,40 L34.6438639,40 C35.2911418,40 35.8157391,39.4754028 35.8157391,38.828125 L35.8157391,13.640747 L38.8281296,13.640747 C39.2706345,13.640747 39.6756028,13.3911133 39.8745775,12.9959106 C40.0738572,12.600708 40.0332689,12.12677 39.7699022,11.7712402 Z M2.34375,35.6900024 C2.34375,34.606018 3.22570797,33.7237548 4.30969234,33.7237548 L6.40167234,33.7237548 C7.48596188,33.7237548 8.36791992,34.606018 8.36791992,35.6900024 L8.36791992,37.65625 L2.34375,37.65625 L2.34375,35.6900024 Z M10.7116699,35.6900024 L10.7116699,29.4140625 C10.7116699,28.329773 11.593628,27.4478149 12.6779175,27.4478149 L14.7698975,27.4478149 C15.8538819,27.4478149 16.7358398,28.329773 16.7358398,29.4140625 L16.7358398,37.65625 L10.7116699,37.65625 L10.7116699,35.6900024 Z M19.079895,29.4140625 L19.079895,23.1378173 C19.079895,22.053833 19.961853,21.171875 21.0458374,21.171875 L23.1378173,21.171875 C24.2218017,21.171875 25.1040649,22.053833 25.1040649,23.1378173 L25.1040649,37.65625 L19.079895,37.65625 L19.079895,29.4140625 Z M34.6438598,11.296997 C33.996582,11.296997 33.4719848,11.8215942 33.4719848,12.468872 L33.4719848,37.65625 L27.4478149,37.65625 L27.4478149,12.468872 C27.4478149,11.8215942 26.9229126,11.296997 26.2759399,11.296997 L24.418335,11.296997 L30.4598999,3.14056398 L36.50177,11.296997 L34.6438598,11.296997 Z" id="Shape"></path>
                </g>
            </g>
        </g>
    </g>
</svg>