<?xml version="1.0" encoding="UTF-8"?>
<svg width="40px" height="40px" viewBox="0 0 40 40" version="1.1" xmlns="http://www.w3.org/2000/svg" xmlns:xlink="http://www.w3.org/1999/xlink">
    <!-- Generator: Sketch 49 (51002) - http://www.bohemiancoding.com/sketch -->
    <title>support</title>
    <desc>Created with Sketch.</desc>
    <defs></defs>
    <g id="Page-1" stroke="none" stroke-width="1" fill="none" fill-rule="evenodd">
        <g id="7" transform="translate(-136.000000, -770.000000)" fill="#292929" fill-rule="nonzero">
            <g id="Group-3" transform="translate(136.000000, 768.000000)">
                <g id="support" transform="translate(0.000000, 2.000000)">
                    <path d="M35.893945,26.6413955 L38.6251219,23.8775888 C40.3542276,22.1283284 40.3545322,19.2816198 38.6254264,17.531435 C38.0948465,16.9948841 37.4576632,16.6179733 36.7769249,16.4090237 C37.3336989,15.6437993 37.6349294,14.7226331 37.6349294,13.7546228 C37.6349294,12.5560898 37.1734893,11.4290557 36.3355872,10.5815459 C35.4982943,9.73403598 34.384442,9.26713515 33.1996223,9.26713515 C33.1499757,9.26713515 33.100329,9.26805964 33.0506823,9.26960063 C33.0893641,8.07168394 32.6580775,6.86051527 31.7562135,5.94767014 C30.8543494,5.03544134 29.6558236,4.5984344 28.4737451,4.6381903 C28.475268,4.5882643 28.4761818,4.53772189 28.4761818,4.48748765 C28.4761818,3.28864647 28.0147417,2.16192063 27.1771442,1.31441073 C25.4483431,-0.434849625 22.6349294,-0.435157791 20.9052144,1.31441073 L19.9610136,2.26978548 L19.0171174,1.3147189 C18.17952,0.466900907 17.0656677,0 15.880848,0 C14.6963329,0 13.5827851,0.466900907 12.7451876,1.31410256 C11.843019,2.22694769 11.4126462,3.43842454 11.4519372,4.6372658 C11.4019859,4.63541665 11.3520346,4.63356757 11.3020834,4.63356757 C10.1175682,4.63356757 9.00371587,5.10016024 8.16550924,5.94767014 C7.26364522,6.86082351 6.83327244,8.07230028 6.87256335,9.27083329 C6.82230752,9.26898422 6.77235626,9.26713515 6.72210043,9.26713515 C5.53758526,9.26713515 4.42373294,9.73403598 3.58674464,10.5812377 C2.74884257,11.4287475 2.28740257,12.5557815 2.28740257,13.7546228 C2.28740257,14.722325 2.58832842,15.6434911 3.14540694,16.4084073 C2.45461747,16.6192062 1.82139376,17.0007396 1.29660086,17.531435 C-0.42824078,19.2773052 -0.432200312,22.1150764 1.28502682,23.8652614 C1.28929092,23.8698841 1.29355509,23.8741987 1.29781918,23.8788215 L4.03295563,26.6457101 C4.0366106,26.6497164 4.04057014,26.6537229 4.04452975,26.6577293 C4.20869879,26.8241494 4.38413739,26.9748521 4.56810433,27.1113782 L3.75913747,27.9299187 C2.97240499,28.7259615 2.57157653,29.810466 2.63096982,30.9837278 C2.68762183,32.1101455 3.16672756,33.183247 3.9793494,34.0054857 L8.60562869,38.686822 C9.46393762,39.5549803 10.5908869,39.9892135 11.7181408,39.9892135 C12.8453948,39.9892135 13.9726487,39.5549803 14.830653,38.686822 L16.9809942,36.5107249 C17.9620492,36.7236809 18.9613792,36.831854 19.9616228,36.831854 C20.9609527,36.831854 21.9605872,36.7242974 22.9413377,36.5113412 L25.0910697,38.686822 C25.9493786,39.5549803 27.076328,39.9892135 28.2035819,39.9892135 C29.3305312,39.9889053 30.4580897,39.5549803 31.316094,38.686822 L35.9426779,34.0054857 C37.6586866,32.2691692 37.8536184,29.640964 36.3770102,28.1465729 L35.3916911,27.1495932 L35.8778021,26.6574211 C35.8832846,26.6521819 35.8884625,26.6469428 35.893945,26.6413955 Z M14.4377436,3.02699708 C14.8233431,2.63683432 15.3359527,2.42202911 15.8811525,2.42202911 C16.4263524,2.42202911 16.938962,2.63683432 17.3245614,3.02699708 L20.9877559,6.73354288 C21.7836257,7.53913957 21.7836257,8.84954391 20.9877559,9.65483235 C20.6021564,10.044995 20.0895468,10.2598003 19.5446515,10.2598003 L19.544347,10.2598003 C18.9991471,10.2594921 18.4868421,10.044995 18.1012427,9.65483235 C18.1006335,9.65421602 18.1000243,9.65359961 18.0997198,9.65329144 L14.4386574,5.94890288 C14.4356116,5.94582099 14.4328703,5.94273917 14.42952,5.93996544 C13.6418738,5.13344426 13.644615,3.82920363 14.4377436,3.02699708 Z M9.85288741,10.5759985 C9.06249996,9.77009373 9.06432749,8.46369578 9.85806534,7.66056458 C10.2439693,7.27040189 10.7568835,7.05559669 11.3020834,7.05559669 C11.846674,7.05559669 12.3586745,7.27009373 12.7442738,7.65994824 C12.7445785,7.65994824 12.744883,7.66025641 12.744883,7.66056458 C12.7464059,7.66179732 12.7476242,7.66303006 12.7488426,7.6642628 L16.4077729,11.366494 C16.409905,11.3689595 16.4126462,11.371425 16.4150829,11.3738905 L17.3242568,12.293824 C17.7098562,12.6839867 17.9224537,13.2026627 17.9224537,13.7546228 C17.9224537,14.3062746 17.7101608,14.8249507 17.3245614,15.2148052 C16.938962,15.604968 16.4263524,15.8197732 15.8811525,15.8197732 C15.3359527,15.8197732 14.8233431,15.604968 14.4380483,15.2148052 C14.433175,15.2098742 14.4283017,15.2052514 14.4234284,15.2006287 L13.5258285,14.2920981 C13.5246101,14.2908654 13.5233918,14.2896327 13.5221735,14.2880917 L9.8583699,10.5815459 C9.8583699,10.5815459 9.85806534,10.5812377 9.85806534,10.5812377 C9.85623782,10.5793886 9.85441029,10.5775394 9.85288741,10.5759985 Z M5.2796053,12.293824 C5.66490012,11.9039694 6.17720515,11.6891642 6.72240499,11.6891642 C7.26760476,11.6891642 7.78021442,11.9039694 8.1658138,12.2941321 L11.8332724,16.0049926 C12.6251828,16.8105893 12.6236599,18.1179117 11.8296175,18.9219675 C11.444018,19.311822 10.9311038,19.5266272 10.385904,19.5266272 C9.84070417,19.5266272 9.3280945,19.311822 8.94279969,18.9216593 C8.93792639,18.9170365 8.93335766,18.9121056 8.92848437,18.9074828 L5.29087478,15.2268245 C5.28691524,15.2228181 5.28295563,15.2185034 5.27930066,15.2148052 C4.89370129,14.8246425 4.68140834,14.3062746 4.68140834,13.7546228 C4.68110378,13.2029709 4.89370129,12.6842949 5.2796053,12.293824 Z M3.00164476,22.177638 C2.99707602,22.1727071 2.99250729,22.1680843 2.98793856,22.1634615 C2.19359158,21.3581731 2.19420078,20.0490015 2.98946152,19.2443294 C3.3750609,18.8541666 3.88767057,18.6393614 4.43287033,18.6393614 C4.97807018,18.6393614 5.49098441,18.8541666 5.87658386,19.2446376 L8.62390347,22.0241617 C9.41977341,22.8294502 9.41977341,24.1398545 8.62420811,24.945143 C8.23860865,25.3353057 7.72599906,25.5501109 7.18110378,25.5501109 L7.18079922,25.5501109 C7.08059212,25.5501109 6.98160327,25.5427145 6.88413739,25.528538 C6.87682745,25.5269971 6.8695175,25.5260725 6.86220756,25.5248398 C6.441886,25.4585799 6.0538499,25.2619576 5.7459186,24.9540804 C5.74287283,24.9506903 5.73952242,24.9476085 5.73647657,24.9442185 L3.00164476,22.177638 Z M16.9161184,34.0067184 C16.9057627,34.0039448 16.8957115,34.002712 16.8856604,34.0002465 C16.8615984,33.994391 16.8378411,33.9888437 16.8137793,33.9845291 C16.7961135,33.9814473 16.7784479,33.9792899 16.7604776,33.9768245 C16.7406798,33.974359 16.720882,33.9718935 16.7007797,33.9703526 C16.6797637,33.9685034 16.6587476,33.9675789 16.6377315,33.9672707 C16.6206749,33.9666544 16.603923,33.9663462 16.5868664,33.9666544 C16.5643275,33.9669625 16.5420931,33.9681953 16.5198587,33.9700443 C16.5037159,33.9712772 16.4875731,33.9725098 16.4714303,33.974359 C16.4495005,33.9768245 16.4278752,33.9802145 16.40625,33.9839127 C16.3891935,33.9866864 16.3724415,33.9900764 16.355385,33.9937747 C16.3355872,33.9980892 16.316094,34.002712 16.2966009,34.0082594 C16.2780214,34.0131904 16.259442,34.0187377 16.2408625,34.0245932 C16.2235014,34.0304488 16.2067495,34.0366124 16.1896929,34.0427762 C16.1698952,34.0504808 16.1500975,34.0581854 16.1309088,34.0668146 C16.1153753,34.0735946 16.0998416,34.0809911 16.0846126,34.0883875 C16.0651194,34.0979413 16.0459308,34.1078032 16.0270468,34.1185897 C16.0115131,34.1272189 15.9962841,34.1364645 15.981055,34.1460182 C15.9639985,34.1568047 15.9466374,34.1675912 15.9298855,34.1793022 C15.9128289,34.1913215 15.896077,34.2039571 15.8796296,34.2169009 C15.8659235,34.2273792 15.8525219,34.2378575 15.8391204,34.2489522 C15.8196272,34.2655942 15.8010478,34.2828525 15.7827729,34.3007273 C15.7757676,34.3075074 15.768153,34.3133629 15.7611477,34.3204512 L13.1384016,36.9742357 C12.3553241,37.7665804 11.0815668,37.7665804 10.2984893,36.9742357 L5.67221006,32.2932076 C5.27930066,31.8956484 5.04812382,31.3868343 5.02162526,30.8601455 C4.99756335,30.3803007 5.15015836,29.9479167 5.45199805,29.6428131 L7.10465404,27.970291 C7.12993419,27.9705991 7.15521442,27.97214 7.18079922,27.97214 C7.18079922,27.97214 7.18079922,27.97214 7.18110378,27.97214 C8.36531431,27.97214 9.47886207,27.5052391 10.3167641,26.6577293 C11.5987451,25.3602687 11.9292154,23.4599976 11.3096979,21.8506533 C12.1418129,21.6731385 12.9066155,21.2570883 13.5224781,20.6345538 C14.2257553,19.9223373 14.6430312,19.0282914 14.7736964,18.1006533 C15.1312744,18.1934171 15.5025584,18.2418023 15.8811525,18.2418023 C15.8811525,18.2418023 15.8811525,18.2418023 15.8814572,18.2418023 C17.0656677,18.2418023 18.1792154,17.7752095 19.0171174,16.9276997 C19.8547149,16.0801898 20.316155,14.9531558 20.316155,13.7546228 C20.316155,13.3721647 20.2686403,12.997103 20.1775707,12.6359097 C21.1217715,12.5003082 21.9940912,12.0620686 22.6803119,11.3671105 C24.4094176,9.6178501 24.4094176,6.77114154 22.6806165,5.02126477 L21.6535697,3.98206359 L22.5977704,3.02699708 C23.393945,2.22170856 24.6890229,2.22170856 25.4845882,3.02668884 C25.8701876,3.4168516 26.0824805,3.93552757 26.0824805,4.48717949 C26.0824805,5.0388314 25.8701876,5.55750738 25.4845882,5.94767014 C25.2509747,6.18404828 25.1340156,6.49408284 25.1340156,6.8041174 C25.1340156,7.11384371 25.2506701,7.42387819 25.4845882,7.66025641 C25.9521199,8.13332103 26.7096126,8.13332103 27.1771442,7.66025641 C27.9727096,6.85527613 29.2677875,6.85496797 30.0639619,7.66025641 C30.8598319,8.4658531 30.8595273,9.77625736 30.0636574,10.5815459 C29.8300438,10.8179241 29.7130848,11.1279586 29.7130848,11.4376849 C29.7130848,11.7477194 29.8297393,12.0574458 30.0636574,12.293824 C30.5311891,12.7668885 31.2886818,12.7668885 31.7562135,12.2941321 C32.1418129,11.9039694 32.6547271,11.6891642 33.1999269,11.688856 C33.7451267,11.688856 34.2577364,11.9036612 34.6430312,12.293824 C35.0289352,12.6842949 35.2412281,13.2029709 35.2412281,13.7546228 C35.2412281,14.2988782 35.0344176,14.8110824 34.6585648,15.1990878 C34.6530823,15.2046351 34.6475999,15.2098742 34.642422,15.2154216 L32.9261087,16.9523546 C32.4987817,17.3847386 32.4570541,18.0716839 32.8289474,18.5536859 L32.8904727,18.633506 C33.2614522,19.1145834 33.9284844,19.2409393 34.446272,18.9287475 C35.2488426,18.4448964 36.2713207,18.5746425 36.9328703,19.243713 C37.7287403,20.0493097 37.7287403,21.359714 36.9328703,22.1650024 L34.1858553,24.9442185 C34.1806774,24.9497658 34.1751949,24.9553131 34.1700171,24.9608604 L28.2736355,30.9270217 C25.3152412,33.9204265 20.9633894,35.1004685 16.9161184,34.0067184 Z M34.6847588,29.8591593 C35.2095517,30.3904709 35.0067008,31.5279833 34.2504264,32.2932076 L29.6238426,36.9742357 C28.8407651,37.7665804 27.5670078,37.7665804 26.7839303,36.9742357 L25.5107821,35.6860207 C27.1655702,34.9713388 28.6811648,33.9398422 29.9661915,32.639608 L33.699135,28.8621795 L34.6847588,29.8591593 Z" id="Shape"></path>
                </g>
            </g>
        </g>
    </g>
</svg>