<?xml version="1.0" encoding="UTF-8"?>
<svg width="40px" height="40px" viewBox="0 0 40 40" version="1.1" xmlns="http://www.w3.org/2000/svg" xmlns:xlink="http://www.w3.org/1999/xlink">
    <!-- Generator: Sketch 49 (51002) - http://www.bohemiancoding.com/sketch -->
    <title>top</title>
    <desc>Created with Sketch.</desc>
    <defs></defs>
    <g id="Page-1" stroke="none" stroke-width="1" fill="none" fill-rule="evenodd">
        <g id="7" transform="translate(-136.000000, -694.000000)" fill="#292929" fill-rule="nonzero">
            <g id="Group-2" transform="translate(136.000000, 692.000000)">
                <g id="top" transform="translate(0.000000, 2.000000)">
                    <path d="M15.1113891,10.177389 L14.3588257,14.4584841 C14.2834473,14.8875167 14.4641113,15.3210152 14.8251343,15.5767674 C15.0292969,15.7214653 15.2709961,15.795303 15.513916,15.795303 C15.7003784,15.795303 15.8877563,15.751834 16.0592652,15.664003 L20,13.6426973 L23.9407348,15.664003 C24.1122437,15.751834 24.2993164,15.795303 24.486084,15.795303 C24.4869995,15.795303 24.4882202,15.795303 24.4894409,15.795303 C25.1358032,15.7944098 25.6594848,15.2829054 25.6594848,14.6520103 C25.6594848,14.5641792 25.6494141,14.47873 25.630188,14.3965558 L24.8886109,10.177389 L28.0767822,7.14528155 C28.3963012,6.84159444 28.5113525,6.38725465 28.3734131,5.97340655 C28.2354736,5.55955838 27.8689575,5.25795541 27.4273681,5.19543155 L23.0215454,4.57078887 L21.0510254,0.675257241 C20.8535766,0.285227744 20.446167,0.0381097561 20,0.0381097561 C19.5541382,0.0381097561 19.1467285,0.285227744 18.9492798,0.675257241 L16.9787598,4.57049116 L12.5726319,5.19513384 C12.1313477,5.25795541 11.7645264,5.55955838 11.6268921,5.97340655 C11.4889527,6.38725465 11.6040039,6.84159444 11.9232178,7.14528155 L15.1113891,10.177389 Z M17.925415,6.74721326 C18.3071899,6.69302591 18.637085,6.45900823 18.8076782,6.12167729 L20,3.76482706 L21.1923218,6.12167729 C21.3632202,6.45900823 21.6931152,6.69302591 22.0748902,6.74721326 L24.7409058,7.12503575 L22.8115845,8.95966319 C22.5354004,9.22226326 22.4093628,9.60068125 22.4746704,9.97135816 L22.9299927,12.5619284 L20.5453491,11.3388434 C20.3747559,11.2513101 20.187378,11.2075434 20.0003052,11.2075434 C19.8129273,11.2075434 19.6255493,11.2513101 19.4549561,11.3388434 L17.0703125,12.5619284 L17.5256348,9.97165587 C17.5909423,9.60068125 17.4649048,9.22226326 17.1887207,8.95966319 L15.2593994,7.12503575 L17.925415,6.74721326 Z" id="Shape"></path>
                    <path d="M35.6900024,25.7544541 L30.6692505,25.7544541 C29.9609375,25.7544541 29.2929077,25.9229707 28.703003,26.2195122 L28.703003,22.6115901 C28.703003,20.2931474 26.7697144,18.4070122 24.3933105,18.4070122 L15.6066895,18.4070122 C13.2302856,18.4070122 11.2966919,20.2931474 11.2966919,22.6115901 L11.2966919,23.1579292 C10.7067871,22.8616854 10.0387573,22.6931688 9.33074953,22.6931688 L4.30999758,22.6931688 C1.93328859,22.6928711 0,24.579304 0,26.8977468 L0,37.9192073 C0,38.5504002 0.524597188,39.0622023 1.171875,39.0622023 L38.828125,39.0622023 C39.4754028,39.0622023 40,38.5504002 40,37.9192073 L40,29.9593297 C40,27.640887 38.0667114,25.7544541 35.6900024,25.7544541 Z M2.34375,26.8977468 C2.34375,25.8402011 3.22570797,24.9794565 4.30999758,24.9794565 L9.33074953,24.9794565 C10.4147339,24.9794565 11.2966919,25.8402011 11.2966919,26.8977468 L11.2966919,36.7759146 L2.34375,36.7759146 L2.34375,26.8977468 Z M13.6404419,26.8977468 L13.6404419,22.6115901 C13.6404419,21.5540444 14.5227051,20.6935976 15.6066895,20.6935976 L24.3933105,20.6935976 C25.4772949,20.6935976 26.359253,21.5540444 26.359253,22.6115901 L26.359253,36.7759146 L13.6404419,36.7759146 L13.6404419,26.8977468 Z M37.65625,36.7759146 L28.703003,36.7759146 L28.703003,29.9593297 C28.703003,28.9014863 29.5849609,28.0410395 30.6692505,28.0410395 L35.6900024,28.0410395 C36.774292,28.0410395 37.65625,28.9014863 37.65625,29.9593297 L37.65625,36.7759146 Z" id="Shape"></path>
                </g>
            </g>
        </g>
    </g>
</svg>